# xmcd
#
# Track frame offsets:
#	150
#	11400
#	24976
#	38928
#	54153
#	70505
#	87157
#	100958
#	117008
#	134034
#	151285
#
# Disc length: 2312 seconds
# Revision: 0
# Processed by: cddbd v1.5.2PL0 Copyright (c) Steve Scherf et al.
# Submitted via: dBpowerAMP V12.0
#
DISCID=7f09060b
DTITLE=Devils Heat - Remains Nameless
DYEAR=2011
DGENRE=
TTITLE0=Scene Change
TTITLE1=Make 'Em Grin
TTITLE2=I'm Running
TTITLE3=My Light
TTITLE4=Poor Will
TTITLE5=Never Loved Me
TTITLE6=Maybe No
TTITLE7=Inside Your Mind
TTITLE8=Shine On Me
TTITLE9=Rain
TTITLE10=Goodbye
EXTD=
EXTT0=
EXTT1=
EXTT2=
EXTT3=
EXTT4=
EXTT5=
EXTT6=
EXTT7=
EXTT8=
EXTT9=
EXTT10=
PLAYORDER=
